<svg viewBox="0 0 323 109" xmlns="http://www.w3.org/2000/svg" xml:space="preserve" style="fill-rule:evenodd;clip-rule:evenodd;stroke-linejoin:round;stroke-miterlimit:2"><path d="m146.467 397.971 32.654 13.82-19.379-27.591a26.582 26.582 0 0 0 2.115-10.424v-43.429c0-14.744-11.97-26.714-26.714-26.714H91.714C76.97 303.633 65 315.603 65 330.347v43.429c0 14.744 11.97 26.714 26.714 26.714h43.429c4.047 0 7.885-.903 11.324-2.519Zm89.337-52.247c1.362-1.916 3.241-3.517 5.636-4.803 2.396-1.286 5.131-1.929 8.208-1.929 3.58 0 6.82.882 9.72 2.648 2.9 1.765 5.194 4.274 6.884 7.526 1.689 3.253 2.534 7.023 2.534 11.309 0 4.287-.845 8.082-2.534 11.385-1.69 3.303-3.984 5.863-6.884 7.678-2.9 1.816-6.14 2.723-9.72 2.723-3.077 0-5.787-.63-8.132-1.891-2.345-1.261-4.249-2.849-5.712-4.766v25.947h-10.59v-61.878h10.59v6.051Zm46.75 0c1.361-1.916 3.24-3.517 5.635-4.803 2.396-1.286 5.131-1.929 8.208-1.929 3.58 0 6.82.882 9.72 2.648 2.9 1.765 5.195 4.274 6.884 7.526 1.689 3.253 2.534 7.023 2.534 11.309 0 4.287-.845 8.082-2.534 11.385-1.689 3.303-3.984 5.863-6.884 7.678-2.9 1.816-6.14 2.723-9.72 2.723-3.077 0-5.787-.63-8.132-1.891-2.345-1.261-4.249-2.849-5.711-4.766v25.947h-10.591v-61.878h10.591v6.051Zm-130.697-15.377v43.429c0 2.873.639 3.18-2.254 8.382-1.227 2.209-3.051 3.892-6.317 6.215-2.251 1.6-5.188 2.117-8.143 2.117H91.714C82.489 390.49 75 383 75 373.776v-43.429c0-9.225 7.489-16.714 16.714-16.714h43.429c9.225 0 16.714 7.489 16.714 16.714Zm208.082 29.372c0 1.513-.101 2.874-.302 4.085H329c.252 3.026 1.311 5.396 3.177 7.11 1.866 1.715 4.161 2.572 6.884 2.572 3.934 0 6.732-1.689 8.397-5.068h11.422c-1.21 4.035-3.53 7.35-6.959 9.948-3.43 2.597-7.64 3.895-12.633 3.895-4.035 0-7.653-.895-10.855-2.685-3.203-1.79-5.699-4.325-7.489-7.603-1.79-3.277-2.686-7.06-2.686-11.346 0-4.337.883-8.145 2.648-11.423 1.765-3.278 4.236-5.799 7.413-7.564 3.177-1.766 6.834-2.648 10.969-2.648 3.984 0 7.552.857 10.704 2.572 3.152 1.715 5.598 4.148 7.337 7.3 1.74 3.152 2.61 6.77 2.61 10.855Zm-155.603-20.046v41.908H193.67v-5.296c-1.362 1.816-3.14 3.24-5.333 4.274-2.194 1.034-4.577 1.551-7.149 1.551-3.278 0-6.178-.693-8.699-2.08-2.522-1.387-4.501-3.43-5.938-6.128-1.438-2.698-2.156-5.913-2.156-9.644v-24.585h10.59v23.072c0 3.328.832 5.887 2.497 7.678 1.664 1.79 3.933 2.685 6.808 2.685 2.925 0 5.219-.895 6.883-2.685 1.665-1.791 2.497-4.35 2.497-7.678v-23.072h10.666Zm15.734 0v41.908h-10.59v-41.908h10.59Zm154.393 6.505c1.362-2.219 3.14-3.959 5.333-5.219 2.194-1.261 4.703-1.891 7.527-1.891v11.12h-2.799c-3.328 0-5.837.781-7.527 2.345-1.689 1.563-2.534 4.286-2.534 8.169v20.879h-10.59v-41.908h10.59v6.505Zm-116.494 14.297c0-2.521-.517-4.702-1.551-6.543-1.034-1.841-2.396-3.24-4.085-4.198a10.92 10.92 0 0 0-5.484-1.438c-1.917 0-3.719.492-5.409 1.475-1.689.984-3.051 2.409-4.085 4.274-1.034 1.866-1.551 4.06-1.551 6.582 0 2.521.517 4.715 1.551 6.581 1.034 1.866 2.396 3.29 4.085 4.274 1.69.983 3.492 1.475 5.409 1.475 1.967 0 3.795-.504 5.484-1.513s3.051-2.446 4.085-4.312c1.034-1.866 1.551-4.085 1.551-6.657Zm46.749 0c0-2.521-.517-4.702-1.551-6.543-1.034-1.841-2.395-3.24-4.085-4.198a10.92 10.92 0 0 0-5.484-1.438c-1.917 0-3.719.492-5.409 1.475-1.689.984-3.051 2.409-4.085 4.274-1.034 1.866-1.55 4.06-1.55 6.582 0 2.521.516 4.715 1.55 6.581 1.034 1.866 2.396 3.29 4.085 4.274 1.69.983 3.492 1.475 5.409 1.475 1.967 0 3.795-.504 5.484-1.513 1.69-1.009 3.051-2.446 4.085-4.312 1.034-1.866 1.551-4.085 1.551-6.657Zm44.253-3.782c-.051-2.723-1.034-4.904-2.951-6.543-1.916-1.639-4.261-2.459-7.035-2.459-2.622 0-4.828.794-6.619 2.383-1.79 1.589-2.887 3.795-3.29 6.619h19.895Zm-134.12-22.013c-1.866 0-3.417-.592-4.653-1.778-1.235-1.185-1.853-2.66-1.853-4.425 0-1.765.618-3.24 1.853-4.425 1.236-1.185 2.787-1.778 4.653-1.778 1.866 0 3.416.593 4.652 1.778 1.235 1.185 1.853 2.66 1.853 4.425 0 1.765-.618 3.24-1.853 4.425-1.236 1.186-2.786 1.778-4.652 1.778Z" style="fill:#b6b6ff;fill-rule:nonzero" transform="translate(-65 -303.633)"/><path d="M69.814 346.643v24.086c0 7.011 2.166 13.36 6.712 17.763 4.487 4.346 11.384 6.934 21.252 6a3.543 3.543 0 0 0-.667-7.052c-7.226.684-12.372-.854-15.657-4.036-3.225-3.123-4.557-7.702-4.557-12.675v-24.086a3.543 3.543 0 0 0-3.541-3.542 3.544 3.544 0 0 0-3.542 3.542Zm34.838 11.829-.015-.003a6.697 6.697 0 0 0-5.933 11.18 19.99 19.99 0 0 0 14.725 6.418c5.818 0 11.061-2.46 14.747-6.396a6.73 6.73 0 0 0-5.96-11.233l-.018.003c-3.159.703-6.392 1.23-8.769 1.23-2.378 0-5.612-.527-8.777-1.199Zm23.862-21.215c-4.676 0-8.472 3.797-8.472 8.473a8.476 8.476 0 0 0 8.472 8.472 8.476 8.476 0 0 0 8.472-8.472c0-4.676-3.796-8.473-8.472-8.473Zm-30.171.108c-4.616 0-8.364 3.748-8.364 8.365 0 4.616 3.748 8.364 8.364 8.364 4.617 0 8.365-3.748 8.365-8.364a8.369 8.369 0 0 0-8.365-8.365Zm30.171 5.378a2.989 2.989 0 0 1 2.987 2.987 2.99 2.99 0 0 1-2.987 2.987 2.988 2.988 0 0 1 0-5.974Zm-30.171.038a2.95 2.95 0 0 1 0 5.898 2.951 2.951 0 0 1-2.949-2.949 2.95 2.95 0 0 1 2.949-2.949Zm116.183-22.595a8.061 8.061 0 0 0-8.057 8.058 8.06 8.06 0 0 0 8.057 8.057 8.06 8.06 0 0 0 8.057-8.057 8.061 8.061 0 0 0-8.057-8.058Z" style="fill:#ff5f7b" transform="translate(-65 -303.633)"/></svg>