<?xml version="1.0" encoding="UTF-8" standalone="no"?>
<!DOCTYPE svg PUBLIC "-//W3C//DTD SVG 1.1//EN" "http://www.w3.org/Graphics/SVG/1.1/DTD/svg11.dtd">
<svg width="100%" height="100%" viewBox="0 0 512 512" version="1.1" xmlns="http://www.w3.org/2000/svg" xmlns:xlink="http://www.w3.org/1999/xlink" xml:space="preserve" xmlns:serif="http://www.serif.com/" style="fill-rule:evenodd;clip-rule:evenodd;stroke-linejoin:round;stroke-miterlimit:2;">
    <g transform="matrix(1,0,0,1,-1419,-2157.48)">
        <g transform="matrix(-2.88788,-2.43823,2.43823,-2.88788,2737.63,3083.52)">
            <g transform="matrix(-0.0861749,0.0727571,-0.0737332,-0.0873309,669.848,-40.2633)">
                <rect x="1675" y="1367.94" width="1201.14" height="1185.24" style="fill:rgb(2,8,107);"/>
                <g id="path302" transform="matrix(-3.09349,-1.98846,2.01513,-3.05254,2653.03,2975.85)">
                    <path d="M181.56,281.46C167.851,280.137 155.372,273.225 147.067,262.356C135.064,246.649 133.692,225.145 143.61,208.191C151.866,194.078 166.059,185.178 182.412,183.86C184.288,183.708 189.214,183.584 193.358,183.584L200.892,183.584L205.093,180.526C207.404,178.845 209.291,177.386 209.286,177.285C209.281,177.185 207.346,175.706 204.986,174L200.695,170.898L191.693,170.891C186.741,170.888 181.681,170.76 180.448,170.607C161.16,168.219 145.221,155.137 139.361,136.885C137.574,131.32 137.195,128.664 137.208,121.804C137.218,116.239 137.279,115.435 137.926,112.396C141.071,97.617 150.134,85.537 163.29,78.585C178.92,70.327 198.449,71.316 213.025,81.104C224.165,88.585 231.52,99.637 234.211,112.941C234.75,115.603 234.825,116.728 234.817,121.937C234.809,126.447 234.695,128.482 234.346,130.333C232.874,138.145 229.96,144.849 225.263,151.228L223.859,153.135L228.516,156.52C231.076,158.381 233.288,159.871 233.43,159.83C233.572,159.788 248.886,148.709 267.462,135.209C286.038,121.708 302.135,110.057 303.232,109.318C308.262,105.926 313.965,103.295 319.272,101.917C321.882,101.239 322.554,101.172 326.769,101.17C330.757,101.168 331.73,101.252 333.781,101.78C336.739,102.543 341.426,104.791 343.703,106.539C345.888,108.216 348.313,110.693 348.103,111.033C347.908,111.349 348.385,111 312.879,136.794C297.163,148.212 274.898,164.387 263.402,172.739C251.906,181.091 238.332,190.951 233.239,194.65C228.146,198.35 223.936,201.415 223.883,201.462C223.83,201.509 224.207,202.06 224.72,202.686C227.393,205.952 230.382,211.324 232.052,215.864C235.339,224.796 235.879,235.361 233.525,244.669C227.645,267.92 205.286,283.751 181.56,281.46ZM193.552,259.675C204.125,256.56 211.938,247.833 213.66,237.215C215.449,226.188 210.568,215.229 201.159,209.142C198.669,207.531 196.244,206.456 193.155,205.595C190.88,204.961 190.201,204.894 186.011,204.889C181.981,204.884 181.089,204.963 179.132,205.497C170.968,207.724 164.645,212.857 160.985,220.229C152.815,236.681 162.184,256.121 180.19,260.079C183.645,260.839 190.284,260.638 193.552,259.675ZM237.869,183.035C239.331,182.374 240.642,181.15 241.392,179.748C242.191,178.254 242.19,175.159 241.39,173.649C239.509,170.096 235.486,168.721 231.994,170.436C226.738,173.015 226.851,180.609 232.181,183.082C233.648,183.763 236.308,183.741 237.869,183.035L237.869,183.035ZM192.609,149.172C197.629,147.878 201.546,145.724 205.206,142.244C209.21,138.437 211.783,134.13 213.195,128.87C213.807,126.593 213.885,125.807 213.885,121.937C213.885,118.075 213.806,117.277 213.201,115.026C209.724,102.085 197.853,93.288 184.82,93.993C177.466,94.392 171.688,96.91 166.539,101.96C162.546,105.878 160.214,109.827 158.825,115.026C158.225,117.272 158.145,118.084 158.145,121.937C158.145,125.789 158.225,126.602 158.825,128.847C161.712,139.654 170.423,147.651 181.428,149.599C184.368,150.119 189.727,149.915 192.609,149.172ZM322.969,253.417C317.104,252.606 310.172,249.843 304.148,245.915C302.344,244.739 283.875,231.37 247.924,205.216C243.34,201.881 239.563,199.073 239.53,198.975C239.447,198.726 262.79,181.858 263.165,181.896C263.334,181.914 269.767,186.505 277.46,192.1C289.722,201.017 300.121,208.573 339.205,236.964C344.08,240.505 348.113,243.531 348.167,243.687C348.321,244.131 344.62,247.544 342.449,248.961C339.249,251.05 336.32,252.287 332.723,253.07C330.419,253.571 325.381,253.75 322.969,253.417Z" style="fill:white;fill-rule:nonzero;"/>
                </g>
            </g>
        </g>
    </g>
</svg>
