<?xml version="1.0" encoding="UTF-8" standalone="no"?>
<!DOCTYPE svg PUBLIC "-//W3C//DTD SVG 1.1//EN" "http://www.w3.org/Graphics/SVG/1.1/DTD/svg11.dtd">
<svg width="100%" height="100%" viewBox="0 0 512 512" version="1.1" xmlns="http://www.w3.org/2000/svg" xmlns:xlink="http://www.w3.org/1999/xlink" xml:space="preserve" xmlns:serif="http://www.serif.com/" style="fill-rule:evenodd;clip-rule:evenodd;stroke-linejoin:round;stroke-miterlimit:2;">
    <g transform="matrix(1.03922,0,0,1,-20.3922,0)">
        <rect x="10" y="0" width="510" height="510" style="fill:white;"/>
        <clipPath id="_clip1">
            <rect x="10" y="0" width="510" height="510"/>
        </clipPath>
        <g clip-path="url(#_clip1)">
            <g id="Artboard1" transform="matrix(2.34609,0,0,2.76757,136.927,138.378)">
                <rect x="-50" y="-50" width="210" height="185" style="fill:none;"/>
                <g id="icon" transform="matrix(0.844028,0,0,0.743549,-209.502,-379.364)">
                    <g transform="matrix(1.84211,0,0,1.84211,95.3354,-82.3448)">
                        <path d="M146.467,397.971L179.121,411.791L159.742,384.2C161.104,380.996 161.857,377.473 161.857,373.776C161.857,373.776 161.857,330.347 161.857,330.347C161.857,315.603 149.887,303.633 135.143,303.633C135.143,303.633 91.714,303.633 91.714,303.633C76.97,303.633 65,315.603 65,330.347C65,330.347 65,373.776 65,373.776C65,388.52 76.97,400.49 91.714,400.49C91.714,400.49 135.143,400.49 135.143,400.49C139.19,400.49 143.028,399.587 146.467,397.971ZM151.857,330.347L151.857,373.776C151.857,376.649 152.496,376.956 149.603,382.158C148.376,384.367 146.552,386.05 143.286,388.373C141.035,389.973 138.098,390.49 135.143,390.49L91.714,390.49C82.489,390.49 75,383 75,373.776L75,330.347C75,321.122 82.489,313.633 91.714,313.633L135.143,313.633C144.368,313.633 151.857,321.122 151.857,330.347Z" style="fill:rgb(182,182,255);fill-rule:nonzero;"/>
                    </g>
                    <g transform="matrix(1.84211,0,0,1.84211,99.8163,-81.8329)">
                        <path d="M69.814,346.643L69.814,370.729C69.814,377.74 71.98,384.089 76.526,388.492C81.013,392.838 87.91,395.426 97.778,394.492C99.724,394.308 101.155,392.578 100.97,390.632C100.786,388.686 99.057,387.256 97.111,387.44C89.885,388.124 84.739,386.586 81.454,383.404C78.229,380.281 76.897,375.702 76.897,370.729C76.897,370.729 76.897,346.643 76.897,346.643C76.897,344.688 75.31,343.101 73.356,343.101C71.401,343.101 69.814,344.688 69.814,346.643ZM104.652,358.472L104.637,358.469C101.817,358.031 99.03,359.428 97.693,361.948C96.355,364.468 96.761,367.559 98.704,369.649C102.366,373.607 107.61,376.067 113.429,376.067C119.247,376.067 124.49,373.607 128.176,369.671L128.176,369.671C130.128,367.571 130.536,364.465 129.192,361.933C127.848,359.401 125.048,357.998 122.216,358.438L122.198,358.441C119.039,359.144 115.806,359.671 113.429,359.671C111.051,359.671 107.817,359.144 104.652,358.472ZM128.514,337.257C123.838,337.257 120.042,341.054 120.042,345.73C120.042,350.406 123.838,354.202 128.514,354.202C133.19,354.202 136.986,350.406 136.986,345.73C136.986,341.054 133.19,337.257 128.514,337.257ZM98.343,337.365C93.727,337.365 89.979,341.113 89.979,345.73C89.979,350.346 93.727,354.094 98.343,354.094C102.96,354.094 106.708,350.346 106.708,345.73C106.708,341.113 102.96,337.365 98.343,337.365ZM128.514,342.743C130.162,342.743 131.501,344.081 131.501,345.73C131.501,347.378 130.162,348.717 128.514,348.717C126.865,348.717 125.527,347.378 125.527,345.73C125.527,344.081 126.865,342.743 128.514,342.743ZM98.343,342.781C99.971,342.781 101.292,344.102 101.292,345.73C101.292,347.357 99.971,348.679 98.343,348.679C96.716,348.679 95.394,347.357 95.394,345.73C95.394,344.102 96.716,342.781 98.343,342.781Z" style="fill:rgb(255,95,123);"/>
                    </g>
                </g>
            </g>
        </g>
    </g>
</svg>
